<?xml version="1.0" encoding="utf-8"?>
<!-- Generator: Adobe Illustrator 27.5.0, SVG Export Plug-In . SVG Version: 6.00 Build 0)  -->
<svg version="1.1" xmlns="http://www.w3.org/2000/svg" xmlns:xlink="http://www.w3.org/1999/xlink" x="0px" y="0px"
	 viewBox="0 0 500 500" style="enable-background:new 0 0 500 500;" xml:space="preserve">
<g id="Plants">
	<g id="Plants_00000038410519926956879810000008626544475668872840_">
		<g>
			<g>
				<path style="fill:#BA68C8;" d="M419.198,399.723c-0.079,0.004-0.159-0.009-0.237-0.038l-6.709-2.575
					c-0.187-0.072-0.328-0.237-0.375-0.437c-0.045-0.191-4.253-19.357,10.935-43.073c10.838-16.921,26.22-27.015,35.014-22.97
					c3.595,1.652,5.916,4.645,6.366,8.211c0.502,3.957-1.289,8.035-4.789,10.907c-0.782,0.641-1.987,1.497-3.514,2.58
					c-9.44,6.702-31.549,22.395-36.137,46.899c-0.033,0.178-0.14,0.33-0.292,0.419C419.38,399.692,419.289,399.719,419.198,399.723z
					 M412.976,396.072l5.742,2.204c4.967-24.589,27.022-40.246,36.492-46.968c1.506-1.07,2.697-1.914,3.446-2.53
					c3.172-2.601,4.797-6.259,4.352-9.784c-0.402-3.172-2.413-5.743-5.664-7.237c-8.278-3.801-23.01,6.094-33.537,22.53
					C409.99,375.866,412.51,393.511,412.976,396.072z"/>
			</g>
			<g>
				<path style="fill:#BA68C8;" d="M415.386,398.259c-0.027,0.001-0.054,0.002-0.081-0.002c-0.329-0.029-0.574-0.328-0.546-0.668
					c2.276-28.956,24.326-54.698,37.909-59.018c0.316-0.102,0.65,0.083,0.749,0.409c0.098,0.326-0.077,0.672-0.391,0.772
					c-13.432,4.271-34.919,30.484-37.078,57.944C415.925,398.007,415.68,398.245,415.386,398.259z"/>
			</g>
		</g>
		<g>
			<g>
				<path style="fill:#BA68C8;" d="M412.488,397.147c-0.086,0.004-0.174-0.011-0.259-0.048l-4.528-1.965
					c-0.183-0.079-0.316-0.246-0.357-0.445c-0.057-0.284-5.629-28.79,4.022-65.325c4.916-18.612,17.389-35.934,29.66-41.189
					c5.9-2.523,11.439-2.32,16.466,0.612c2.842,1.657,4.511,3.827,4.963,6.448c1.249,7.247-6.834,16.955-15.391,27.234
					c-5.988,7.191-12.178,14.627-15.333,21.444c-0.142,0.308-0.499,0.434-0.797,0.287c-0.298-0.149-0.424-0.517-0.282-0.825
					c3.222-6.964,9.465-14.463,15.503-21.716c8.368-10.052,16.273-19.545,15.123-26.215c-0.391-2.269-1.82-4.096-4.37-5.584
					c-4.687-2.735-9.874-2.92-15.419-0.543c-11.96,5.12-24.143,22.102-28.97,40.378c-9.029,34.183-4.641,61.22-4.064,64.43
					l4.23,1.836c0.304,0.132,0.45,0.494,0.323,0.808C412.917,396.996,412.711,397.137,412.488,397.147z"/>
			</g>
			<g>
				<path style="fill:#BA68C8;" d="M413.026,379.436c-0.014,0.001-0.029,0.001-0.043,0.001c-0.33-0.008-0.592-0.292-0.587-0.633
					c0.79-45.089,28.385-78.266,36.122-83.635c0.272-0.188,0.645-0.114,0.83,0.169c0.185,0.284,0.114,0.667-0.159,0.857
					c-7.624,5.291-34.816,38.036-35.597,82.639C413.586,379.16,413.336,379.421,413.026,379.436z"/>
			</g>
		</g>
	</g>
</g>
<g id="Shadow">
	<path id="Shadow_00000181795998451556800490000016500781907208116099_" style="fill:#E0E0E0;" d="M258.053,365.409
		c-37.305,21.539-37.305,56.46,0,77.998c37.305,21.538,97.789,21.538,135.095,0c37.306-21.538,37.306-56.459,0-77.998
		C355.842,343.87,295.358,343.87,258.053,365.409z"/>
</g>
<g id="Character">
	<g id="Character_00000047045004644690080230000015189687998652785820_">
		<g id="Bottom">
			<path style="fill:#37474F;" d="M286.273,434.063c0,0-27.659-9.968-36.677-24.586c0.831-16.198,2.397-45.284,2.633-45.09
				l52.13,5.398l-11.016,45.702L286.273,434.063z"/>
			<path style="fill:#455A64;" d="M286.269,427.607v6.457c19.372,7.939,55.463,8.098,78.884,0.45
				c15.9-5.192,29.716-14.021,34.451-19.434l-1.781-45.291H256.795c0.014,6.911,4.261,27.226,9.149,35.693
				C270.833,413.949,286.269,427.607,286.269,427.607z"/>
		</g>
		<g id="Top_26_">
			<g id="Arm_00000090986662034459238030000000643769081820019635_">
				<path style="fill:#37474F;" d="M268.961,195.927c-13.755-0.038-22.006,2.523-34.015,2.574
					c-30.826,0.132-47.863,1.926-47.863,1.926s-39.987,11.313-37.176,21.137c3.686,12.882,28.323,21.586,60.509,26.264
					c33.254,4.833,53.835,7.437,53.835,7.437L268.961,195.927z"/>
				<g>
					<path style="fill:#FFA8A7;" d="M277.063,111.379c1.091-4.394,2.223-8.78,3.321-13.176c0.461-1.846,0.925-3.709,0.978-5.611
						c0.053-1.902-0.336-3.871-1.445-5.417c-0.791-1.103-2.407-1.959-3.452-1.092c-0.311,0.258-0.506,0.627-0.693,0.986
						c-3.477,6.666-6.954,13.332-10.432,19.998c-1.129,2.165-2.263,4.337-3.677,6.328c-1.376,1.938-3.072,3.757-3.926,6.011
						c-0.891,2.351-4.119,8.311-5.216,10.431c-2.355,4.55-6.231,9.699-14.328,15.261c-12.67,8.703-32.421,15.187-62.825,30.985
						c-9.972,5.181-17.575,16.68-22.368,26.757c-8.301,17.451-2.427,26.26,10.506,26.117c10.339-0.115,24.482-2.845,39.196-13.576
						c24.325-17.742,39.612-38.158,52.28-46.261c3.139-2.311,8.67-3.648,10.637-5.318c3.858-3.275,5.607-6.779,6.537-11.75
						c0.933-4.985,0.611-10.094,0.839-15.135c0.186-4.118,0.075-7.99,0.932-12.051C274.879,120.348,275.95,115.859,277.063,111.379z
						"/>
					<path style="fill:#F28F8F;" d="M264.408,108.837l-0.001-0.002c0.315-0.589,0.625-1.179,0.933-1.77
						c3.477-6.666,6.955-13.332,10.432-19.998c0.187-0.359,0.382-0.727,0.693-0.986c1.044-0.867,2.661-0.011,3.452,1.093
						c1.109,1.546,1.498,3.515,1.445,5.417c-0.053,1.902-0.517,3.765-0.978,5.611c-1.098,4.396-2.23,8.782-3.321,13.176
						c-1.113,4.481-2.184,8.97-3.137,13.485c-0.857,4.061-0.746,7.933-0.932,12.051c-0.227,5.041,0.094,10.15-0.839,15.135
						c-0.93,4.971-2.679,8.475-6.537,11.75c-1.005,0.853-2.942,1.621-5.014,2.475c-4.089-8.237-1.935-21.806-0.174-33.985
						C261.906,122.085,258.45,117.67,264.408,108.837z"/>
				</g>
			</g>
			<g id="Chest_6_">
				<g>
					<path id="XMLID_5023_" style="fill:#FAFAFA;" d="M252.239,258.065c0.273-43.913,19.454-56.374,27.046-59.713l31.043-6.898
						c9.541,0.846,50.341,12.121,61.573,14.641c7.231,1.622,19.085,5.804,23.219,28.775c3.358,18.659,3.846,26.195,1.652,60.114
						c-1.415,21.88-2.52,49.841,2.194,89.54c-48.987,16.122-103.145,22.698-140.381-4.605c0.721-6.184-4.125-57.448-4.767-72.587
						C253.176,292.194,252.165,269.953,252.239,258.065z"/>
					<g>
						<g>
							<path style="fill:#BA68C8;" d="M296.922,196.953c-4.062,2.14-22.514,19.944-24.9,49.576
								c-4.386,54.479-4.29,102.681-4.29,149.817c-6.491-3.154-17.116-10.668-20.251-19.168c1.04-18.565,0.974-56.791,1.303-69.849
								c0.469-18.597,1.029-48.773,2.129-60.727c1.464-15.907,4.927-39.565,18.048-50.675c14.068-1.42,27.406-2.517,27.406-2.517
								L296.922,196.953z"/>
						</g>
					</g>
				</g>
				<g id="Head_10_">
					<path style="fill:#263238;" d="M336.762,178.261c1.778-10.64,12.331-21.765,17.073-31.05c4.574-8.953,7.292-15.896,6.749-24.3
						c-0.321-4.978-3.476-11.717-7.171-13.123c4.223-18.515-9.685-27.066-17.063-28.803c-2.83-0.666-7.502-1.694-10.209-2.819
						c-4.013-1.666-4.927-4.889-8.167-7.625c-5.577-4.711-14.95-4.794-18.501,2.368c-3.716-4.781-8.74-4.644-14.54-3.154
						c-5.53,1.421-8.144,6.12-7.567,11.22c-7.769-4.323-14.877,1.175-15.578,5.74c-0.517,3.366,0.207,6.204-1.988,9.226
						c-2.472,3.403-7.163,3.357-8.593,0.617c-0.79,4.784,1.087,8.423,6.271,8.145c-1.78,2.594-2.238,5.991-1.327,9.129
						c1.235,4.254,5.525,6.747,8.976,6.813c0.557,2.622,0.675,5.026,2.329,7.284c1.591,2.171,3.653,4.323,6.118,5.489
						c7.86,3.722,16.546,4.916,25.007,6.644c3.348,0.684,6.695,1.369,10.042,2.053c0.584,0.12,3.616,0.295,3.977,0.814
						C312.601,142.931,336.762,178.261,336.762,178.261z"/>
					<g id="XMLID_5022_">
						<path style="fill:#FFA8A7;" d="M349.611,164.473c-7.465,4.485-10.896-0.371-10.896-0.371l0.844,38.838
							c0,0-15.994,20.664-44.645,22.088c-2.067-6.262-2.045-17.298-0.451-20.733l-0.339-15.603c0,0-7.652,0.157-12.652-0.531
							c-8.34-1.12-15.405-7.701-17.808-16.724c-2.511-9.43-3.235-24.854-1.214-36.171c0.516-2.891,0.738-5.84,0.428-8.76
							c-0.824-7.754,0.561-12.272,2.547-18.791c9.158-7.417,35.112-9.021,54.932,2.957c-4.214,10.101-1.523,20.355,7.055,24.82
							c-0.392,3.181-0.766,11.216,4.46,11.053c3.765-0.118,4.004-4.842,7.856-9.012c3.932-4.258,12.875-5.312,16.384,0.813
							C361.02,146.914,357.788,159.559,349.611,164.473z"/>
						<path style="fill:#F28F8F;" d="M294.123,188.69c13.222-1.596,23.269-3.061,30.134-12.664c4.306-6.022,7.93-15.7,7.93-15.7
							s-1.322,11.718-5.619,19.665c-3.311,6.126-11.475,11.244-32.207,13.085L294.123,188.69z"/>
					</g>
					<g id="XMLID_5006_">
						<path id="XMLID_5010_" style="fill:#263238;" d="M299.16,136.337c0.038,2.349,1.903,4.218,4.163,4.175
							c2.262-0.043,4.063-1.983,4.025-4.332c-0.039-2.35-1.902-4.219-4.164-4.176C300.923,132.05,299.121,133.988,299.16,136.337z"
							/>
						<path id="XMLID_5009_" style="fill:#263238;" d="M309.341,125.619l-7.955-6.066c-1.647,2.299-1.2,5.522,0.996,7.197
							C304.579,128.426,307.694,127.919,309.341,125.619z"/>
						<path id="XMLID_5008_" style="fill:#263238;" d="M276.91,118.483l-7.785,6.404c1.701,2.233,4.823,2.611,6.973,0.842
							C278.248,123.962,278.612,120.718,276.91,118.483z"/>
						<path id="XMLID_5007_" style="fill:#263238;" d="M268.961,135.456c0.039,2.348,1.902,4.218,4.163,4.174
							c2.26-0.044,4.062-1.982,4.024-4.331c-0.039-2.348-1.903-4.218-4.163-4.175C270.724,131.167,268.922,133.106,268.961,135.456z
							"/>
						<path style="fill:#F28F8F;" d="M275.947,148.557l12.963,5.715l3.93-25.402C288.027,127.163,281.863,138.849,275.947,148.557z"
							/>
					</g>
					<path style="fill:#B16668;" d="M288.678,168.198c2.119,1.404,3.416-0.72,7.123-2.261c3.707-1.541,7.207,0.29,6.713-2.791
						c-0.522-3.254-6.251-5.137-9.958-3.595C288.849,161.092,286.269,166.602,288.678,168.198z"/>
					<path style="fill:#F28F8F;" d="M295.514,165.632c-0.362,0.151-0.683,0.336-1.001,0.523c-0.24-2.445,1.467-4.672,3.923-5.028
						c1.298-0.188,2.223,0.008,3.182,0.755c0.194,0.272,0.397,0.692,0.477,1.002C302.875,165.905,299.221,164.09,295.514,165.632z"
						/>
				</g>
				<g>
					<g>
						<path style="fill:#BA68C8;" d="M391.478,209.861l-21.684-13.934l-30.426-1.722c0,0-7.996,18.108-8.505,80.108
							c-0.554,67.435,1.255,139.026,1.255,139.026s51.486-0.107,70.799-29.002c0,0-2.166-20.544-3.288-54.515
							c-0.663-20.071-1.561-33.523,0.613-50.701C404.286,247.161,401.026,226.846,391.478,209.861z"/>
					</g>
				</g>
				<path style="fill:#37474F;" d="M333.334,225.619l0.18-29.136c0,0,4.909-5.662,5.71-8.932l-0.112-5.147
					c0,0,2.632-0.057,2.982,3.594c0.35,3.651,0.615,9.607,0.615,9.607L333.334,225.619z"/>
				<path style="fill:#37474F;" d="M278.08,221.988l3.438-24.379c0,0,6.011-6.49,9.697-8.907l2.908-0.012l0.225,10.327
					C294.348,199.018,285,207.849,278.08,221.988z"/>
				<path style="fill:#F28F8F;" d="M281.698,117.362c-0.264-0.489-0.604-0.929-1.016-1.303c-0.774-0.702-1.827-1.207-2.891-1.112
					c-0.486,0.043-0.19,0.742,0.155,0.795c0.245,0.038,0.48,0.104,0.718,0.171c0.028,0.008,0.033,0.008,0.041,0.01
					c0.008,0.004,0.012,0.006,0.041,0.018c0.053,0.021,0.105,0.041,0.157,0.063c0.043,0.018,0.086,0.038,0.129,0.058
					c0.016,0.007,0.037,0.019,0.053,0.027c0.171,0.096,0.338,0.195,0.501,0.304c0.017,0.011,0.018,0.011,0.025,0.016
					c0.004,0.004,0.005,0.006,0.022,0.019c0.042,0.035,0.085,0.069,0.126,0.105c0.076,0.066,0.15,0.134,0.221,0.205
					c0.023,0.023,0.046,0.047,0.068,0.07c0.003,0.005,0.065,0.073,0.069,0.078c0.065,0.077,0.127,0.156,0.185,0.238
					c0.054,0.075,0.105,0.152,0.155,0.23c0.008,0.015,0.041,0.07,0.047,0.082c0.022,0.04,0.043,0.08,0.063,0.121
					c0.045,0.09,0.086,0.181,0.124,0.274c0.021,0.05,0.04,0.102,0.059,0.153c0.004,0.011,0.049,0.142,0.03,0.086
					c-0.018-0.057,0.022,0.074,0.025,0.086c0.014,0.052,0.028,0.104,0.04,0.156c0.052,0.228,0.094,0.459,0.188,0.675
					c0.057,0.133,0.165,0.25,0.292,0.338c0.103,0.115,0.31,0.263,0.452,0.134C282.381,118.906,282.016,117.949,281.698,117.362z"/>
				<path style="fill:#F28F8F;" d="M300.603,116.24c-0.536,0.166-0.984,0.583-1.362,0.987c-0.34,0.363-0.642,0.759-0.903,1.182
					c-0.264,0.427-0.492,0.871-0.658,1.346c-0.086,0.247-0.178,0.51-0.214,0.77c-0.016,0.12-0.012,0.245-0.015,0.366
					c-0.001,0.079-0.012,0.168-0.004,0.248c0.015,0.16,0.104,0.301,0.144,0.454c0.06,0.227,0.481,0.596,0.666,0.277
					c0.095-0.165,0.213-0.301,0.281-0.478c0.053-0.139,0.108-0.276,0.165-0.413c0.09-0.218,0.151-0.448,0.234-0.67
					c0.158-0.419,0.347-0.836,0.574-1.223c0.218-0.37,0.474-0.719,0.757-1.042c0.324-0.369,0.794-0.703,1.01-1.143
					C301.467,116.517,300.94,116.136,300.603,116.24z"/>
			</g>
			<g id="Arm_00000132792079117168061450000003563262687786279068_">
				<path style="fill:#37474F;" d="M369.795,195.926c25.857-0.309,34.806,2.746,54.337,8.085c9.256,2.53,36.853,9.126,36.853,9.126
					l25.295,28.055l-6.359,14.819c-8.835,4.873-32.803,1.753-59.014,4.672c-10.453,1.164-16.846,5.155-20.046,12.6
					c-1.102,2.563-18.694,4.713-27.007-16.053C366.355,238.499,364.802,214.929,369.795,195.926z"/>
				<g>
					<path style="fill:#F28F8F;" d="M381.111,151.409c-0.963-5.344-0.171-12.876-0.828-18.028
						c-0.657-5.151-3.523-13.098-4.04-19.576c-0.516-6.468-1.395-7.113-3.865-6.574c-2.025,0.442-4.685,4.822-3.71,11.692
						C369.394,124.03,373.533,147.877,381.111,151.409z"/>
					<path style="fill:#FFA8A7;" d="M366.5,111.441c1.709,3.564,4.728,7.008,6.264,10.657c1.605,3.813,1.455,5.637,2.837,13.102
						c1.076,5.809,1.051,11.033,7.911,17.995c12.281,12.462,56.198,29.847,82.582,51.262c10.061,8.167,15.641,15.633,19.14,28.016
						c4.609,16.312-1.853,25.349-11.731,24.726c-11.899-0.751-32.751-6.8-47.774-21.473c-24.837-24.26-48.376-48.309-61.497-59.645
						c-3.202-3.155-7.523-6.87-9.493-9.1c-3.688-4.175-5.17-10.343-5.721-15.88c-0.913-9.171-4.601-16.164-4.287-20.331
						c-0.679-3.926-2.951-10.042-5.046-16.288c-1.198-3.572-2.491-6.664-0.975-8.48c0.379-0.454,1.201-0.907,1.201-0.907
						s-0.127-0.469-0.166-0.668c-0.261-1.33-0.583-2.663-0.57-4.018c0.012-1.355,0.14-2.655,1.054-3.656
						c0.507-0.556,1.127-0.786,1.127-0.786s-0.124-0.361-0.277-0.842c-0.413-1.301-0.601-2.693-0.421-4.047
						c0.18-1.354,0.827-2.691,1.949-3.469c1.122-0.778,2.749-0.876,3.827-0.039c0.407,0.316,0.716,0.737,1.02,1.152
						c0.759,1.038,1.518,2.075,2.277,3.113c1.598-1.226,2.639-0.428,4.061,0.798c1.734,1.495,3.204,3.271,4.796,4.916
						c0.733,0.757,1.467,1.521,2.06,2.392c0.523,0.77,0.929,1.612,1.332,2.451C363.442,105.435,365.05,108.418,366.5,111.441z"/>
					<g>
						<path style="fill:#B16668;" d="M354.739,166.982c-4.535-4.628-5.735-11.478-6.404-17.646
							c-0.578-6.286-3.699-12.203-3.605-18.565c0.03,1.588,0.425,3.119,0.884,4.625c1.41,4.547,2.962,9.059,3.639,13.81
							C349.864,155.432,350.821,161.879,354.739,166.982L354.739,166.982z"/>
					</g>
					<g>
						<g>
							<path style="fill:#B16668;" d="M349.732,91.837c1.891,2.381,6.217,7.585,7.96,9.949c2.508,3.454,3.404,7.878,4.914,11.821
								c0,0,1.309,4.038,1.309,4.038c0.233,0.671,0.34,1.392,0.742,1.926c0.395,0.553,1.078,0.858,1.605,1.332
								c-0.581-0.396-1.29-0.603-1.792-1.178c-0.887-1.15-1.912-4.522-2.534-5.878c-1.284-3.279-2.453-6.616-3.833-9.843
								C355.569,99.951,352.156,95.977,349.732,91.837L349.732,91.837z"/>
						</g>
						<g>
							<path style="fill:#B16668;" d="M341.356,95.968c0.65-0.234,1.381-0.445,2.11-0.201c0.74,0.219,1.197,0.958,1.56,1.491
								c0.805,1.134,1.669,2.247,2.508,3.373c1.682,2.254,3.383,4.621,4.355,7.283c1.812,4.564,3.79,9.123,4.875,13.935
								c0.132,0.689,0.288,1.401,0.179,2.105c-0.079-1.399-0.647-2.711-1.115-4.021c-2.694-6.44-4.726-13.182-8.877-18.891
								c-0.768-1.175-1.564-2.328-2.306-3.537c-0.352-0.642-0.634-1.231-1.268-1.509C342.768,95.724,342.036,95.825,341.356,95.968
								L341.356,95.968z"/>
						</g>
						<g>
							<path style="fill:#B16668;" d="M339.911,105.095c2.267-0.744,3.374,2.326,4.345,3.826c2.638,4.453,4.064,9.463,5.611,14.355
								c0.275,1.033,0.31,2.099,0.112,3.113c0.104-2.098-0.991-3.875-1.706-5.813c-0.771-1.903-1.475-3.83-2.203-5.742
								c-0.66-1.983-1.633-3.733-2.449-5.593C342.769,107.733,342.098,104.761,339.911,105.095L339.911,105.095z"/>
						</g>
					</g>
				</g>
			</g>
		</g>
	</g>
</g>
<g id="Speech_Bubble_5">
	<g id="Speech_Bubble_00000161618161153219001670000010719572058816918164_">
		<path id="Speech_Bubble_00000155110110535600676040000011053917221893169045_" style="fill:#F5F5F5;" d="M224.452,358.915
			c-5.917-8.648-23.984-11.348-33.913-4.354c-9.638-5.523-21.455-8.787-34.236-8.787c-32.41,0-58.684,20.92-58.684,46.726
			c0,25.806,26.274,46.726,58.684,46.726c32.41,0,58.684-20.92,58.684-46.726c0-9.421-3.514-18.185-9.538-25.523
			C207.408,359.96,215.488,356.987,224.452,358.915z"/>
		<g>
			<path style="fill:#FFFFFF;" d="M147.488,378.207c-0.335,0-0.59-0.089-0.767-0.266c-0.177-0.177-0.306-0.313-0.384-0.412
				l-8.255-12.265v12.146c0,0.217-0.078,0.403-0.235,0.56c-0.158,0.158-0.345,0.236-0.561,0.236h-2.388
				c-0.217,0-0.403-0.078-0.561-0.236c-0.157-0.156-0.235-0.343-0.235-0.56v-19.045c0-0.217,0.078-0.403,0.235-0.561
				c0.157-0.157,0.344-0.235,0.561-0.235h2.063c0.334,0,0.59,0.088,0.767,0.265c0.177,0.177,0.305,0.314,0.383,0.413l8.255,12.265
				v-12.147c0-0.217,0.079-0.403,0.236-0.561c0.157-0.157,0.344-0.235,0.561-0.235h2.388c0.216,0,0.402,0.078,0.559,0.235
				c0.157,0.157,0.236,0.344,0.236,0.561v19.045c0,0.217-0.079,0.403-0.236,0.56c-0.157,0.158-0.344,0.236-0.559,0.236H147.488z"/>
			<path style="fill:#FFFFFF;" d="M160.695,362.582c1.081,0,2.059,0.167,2.934,0.501c0.874,0.334,1.632,0.796,2.271,1.386
				c0.639,0.59,1.149,1.277,1.533,2.064c0.383,0.786,0.604,1.632,0.663,2.535c0.02,0.177,0.029,0.403,0.029,0.679
				c0,0.275,0,0.55,0,0.825c0,0.275,0,0.546,0,0.81c0,0.266-0.01,0.486-0.029,0.663c-0.079,0.904-0.305,1.75-0.678,2.536
				c-0.374,0.786-0.88,1.469-1.519,2.049c-0.639,0.58-1.396,1.037-2.271,1.371c-0.875,0.334-1.852,0.501-2.934,0.501
				c-1.081,0-2.059-0.167-2.933-0.501c-0.875-0.334-1.632-0.791-2.27-1.371c-0.639-0.58-1.146-1.263-1.519-2.049
				c-0.373-0.786-0.6-1.632-0.678-2.536c-0.02-0.177-0.034-0.397-0.044-0.663c-0.011-0.265-0.015-0.535-0.015-0.81
				c0-0.275,0.004-0.55,0.015-0.825c0.01-0.275,0.024-0.502,0.044-0.679c0.059-0.903,0.28-1.749,0.663-2.535
				c0.384-0.786,0.895-1.474,1.533-2.064c0.639-0.59,1.395-1.052,2.27-1.386C158.636,362.749,159.614,362.582,160.695,362.582z
				 M164.262,369.215c-0.059-0.608-0.201-1.115-0.427-1.518c-0.227-0.403-0.507-0.723-0.841-0.959
				c-0.334-0.235-0.698-0.397-1.091-0.486c-0.394-0.088-0.796-0.133-1.209-0.133c-0.412,0-0.815,0.045-1.208,0.133
				c-0.393,0.089-0.757,0.251-1.091,0.486c-0.335,0.236-0.615,0.556-0.841,0.959c-0.226,0.402-0.368,0.909-0.428,1.518
				c-0.02,0.158-0.034,0.354-0.044,0.59c-0.01,0.236-0.015,0.481-0.015,0.737c0,0.256,0.005,0.506,0.015,0.752
				s0.024,0.438,0.044,0.574c0.06,0.609,0.202,1.116,0.428,1.519c0.226,0.403,0.506,0.723,0.841,0.958
				c0.334,0.236,0.697,0.398,1.091,0.486c0.393,0.089,0.796,0.133,1.208,0.133c0.413,0,0.815-0.044,1.209-0.133
				c0.393-0.088,0.757-0.25,1.091-0.486c0.334-0.235,0.614-0.555,0.841-0.958c0.226-0.402,0.368-0.909,0.427-1.519
				c0.02-0.137,0.029-0.328,0.029-0.574s0-0.496,0-0.752c0-0.256,0-0.501,0-0.737C164.292,369.569,164.282,369.373,164.262,369.215z
				"/>
			<path style="fill:#FFFFFF;" d="M170.6,374.876c0.039-0.275,0.162-0.536,0.368-0.781c0.207-0.246,0.506-0.369,0.899-0.369h2.565
				c0.177,0,0.328,0.064,0.457,0.191c0.127,0.129,0.191,0.28,0.191,0.457c0,0.079-0.011,0.147-0.029,0.207l-1.946,4.894
				c-0.078,0.196-0.211,0.402-0.397,0.619c-0.188,0.216-0.478,0.324-0.87,0.324h-1.326c-0.178,0-0.33-0.063-0.457-0.191
				c-0.129-0.128-0.192-0.28-0.192-0.457v-0.059L170.6,374.876z"/>
			<path style="fill:#FFFFFF;" d="M132.304,401.411c0,0.217-0.078,0.403-0.235,0.56c-0.157,0.158-0.345,0.236-0.56,0.236h-2.24
				c-0.217,0-0.403-0.078-0.561-0.236c-0.157-0.156-0.235-0.343-0.235-0.56v-7.488c0-1.18-0.275-2.123-0.826-2.83
				c-0.55-0.708-1.396-1.061-2.535-1.061c-1.042,0-1.862,0.353-2.462,1.061c-0.6,0.707-0.898,1.65-0.898,2.83v7.488
				c0,0.217-0.079,0.403-0.236,0.56c-0.157,0.158-0.344,0.236-0.56,0.236h-2.241c-0.217,0-0.403-0.078-0.56-0.236
				c-0.158-0.156-0.236-0.343-0.236-0.56v-13.738c0-0.216,0.078-0.403,0.236-0.561c0.156-0.157,0.343-0.235,0.56-0.235h2.241
				c0.216,0,0.402,0.078,0.56,0.235c0.157,0.157,0.236,0.345,0.236,0.561v0.678c0.511-0.511,1.109-0.934,1.798-1.268
				c0.688-0.334,1.504-0.501,2.447-0.501c1.198,0,2.201,0.186,3.007,0.56c0.806,0.374,1.454,0.875,1.946,1.504
				c0.491,0.629,0.84,1.361,1.046,2.196c0.207,0.836,0.31,1.715,0.31,2.639V401.411z"/>
			<path style="fill:#FFFFFF;" d="M142.239,386.582c1.081,0,2.059,0.167,2.934,0.501c0.874,0.334,1.632,0.796,2.27,1.386
				c0.639,0.59,1.149,1.277,1.533,2.064c0.383,0.786,0.604,1.632,0.663,2.535c0.02,0.177,0.029,0.403,0.029,0.679
				c0,0.275,0,0.55,0,0.825c0,0.275,0,0.546,0,0.81c0,0.266-0.01,0.486-0.029,0.663c-0.079,0.904-0.305,1.75-0.678,2.536
				c-0.374,0.786-0.88,1.469-1.519,2.049c-0.639,0.58-1.396,1.037-2.27,1.371c-0.875,0.334-1.853,0.501-2.934,0.501
				c-1.081,0-2.059-0.167-2.933-0.501c-0.875-0.334-1.632-0.791-2.27-1.371c-0.639-0.58-1.146-1.263-1.519-2.049
				c-0.373-0.786-0.6-1.632-0.678-2.536c-0.02-0.177-0.034-0.397-0.044-0.663c-0.011-0.265-0.015-0.535-0.015-0.81
				c0-0.275,0.004-0.55,0.015-0.825c0.01-0.275,0.024-0.502,0.044-0.679c0.059-0.903,0.28-1.749,0.663-2.535
				c0.384-0.786,0.895-1.474,1.533-2.064c0.639-0.59,1.395-1.052,2.27-1.386C140.18,386.749,141.158,386.582,142.239,386.582z
				 M145.806,393.215c-0.059-0.608-0.201-1.115-0.427-1.518c-0.227-0.403-0.507-0.723-0.841-0.959
				c-0.334-0.235-0.698-0.397-1.091-0.486c-0.393-0.088-0.796-0.133-1.209-0.133c-0.412,0-0.816,0.045-1.208,0.133
				c-0.394,0.089-0.757,0.251-1.091,0.486c-0.335,0.236-0.615,0.556-0.841,0.959c-0.226,0.402-0.368,0.909-0.428,1.518
				c-0.02,0.158-0.034,0.354-0.044,0.59c-0.01,0.236-0.015,0.481-0.015,0.737c0,0.256,0.005,0.506,0.015,0.752
				c0.01,0.246,0.024,0.438,0.044,0.574c0.06,0.609,0.202,1.116,0.428,1.519c0.226,0.403,0.506,0.723,0.841,0.958
				c0.334,0.236,0.697,0.398,1.091,0.486c0.393,0.089,0.796,0.133,1.208,0.133c0.413,0,0.815-0.044,1.209-0.133
				c0.393-0.088,0.757-0.25,1.091-0.486c0.334-0.235,0.614-0.555,0.841-0.958c0.226-0.402,0.368-0.909,0.427-1.519
				c0.02-0.137,0.029-0.328,0.029-0.574s0-0.496,0-0.752c0-0.256,0-0.501,0-0.737C145.835,393.569,145.826,393.373,145.806,393.215z
				"/>
			<path style="fill:#FFFFFF;" d="M152.145,398.876c0.039-0.275,0.162-0.536,0.368-0.781c0.207-0.246,0.506-0.369,0.899-0.369h2.565
				c0.177,0,0.328,0.064,0.457,0.191c0.127,0.129,0.191,0.28,0.191,0.457c0,0.079-0.011,0.147-0.029,0.207l-1.946,4.894
				c-0.078,0.196-0.211,0.402-0.398,0.619c-0.188,0.216-0.477,0.324-0.87,0.324h-1.326c-0.178,0-0.33-0.063-0.457-0.191
				c-0.129-0.128-0.192-0.28-0.192-0.457v-0.059L152.145,398.876z"/>
			<path style="fill:#FFFFFF;" d="M179.768,401.411c0,0.217-0.078,0.403-0.235,0.56c-0.157,0.158-0.345,0.236-0.561,0.236h-2.24
				c-0.217,0-0.403-0.078-0.561-0.236c-0.157-0.156-0.235-0.343-0.235-0.56v-7.488c0-1.18-0.275-2.123-0.826-2.83
				c-0.55-0.708-1.396-1.061-2.535-1.061c-1.042,0-1.862,0.353-2.462,1.061c-0.6,0.707-0.898,1.65-0.898,2.83v7.488
				c0,0.217-0.079,0.403-0.236,0.56c-0.157,0.158-0.344,0.236-0.56,0.236h-2.241c-0.217,0-0.403-0.078-0.56-0.236
				c-0.158-0.156-0.236-0.343-0.236-0.56v-13.738c0-0.216,0.078-0.403,0.236-0.561c0.156-0.157,0.343-0.235,0.56-0.235h2.241
				c0.216,0,0.402,0.078,0.56,0.235c0.157,0.157,0.236,0.345,0.236,0.561v0.678c0.511-0.511,1.109-0.934,1.798-1.268
				c0.688-0.334,1.504-0.501,2.447-0.501c1.198,0,2.201,0.186,3.007,0.56c0.806,0.374,1.454,0.875,1.946,1.504
				c0.491,0.629,0.84,1.361,1.046,2.196c0.207,0.836,0.31,1.715,0.31,2.639V401.411z"/>
			<path style="fill:#FFFFFF;" d="M189.704,386.582c1.081,0,2.059,0.167,2.934,0.501c0.874,0.334,1.632,0.796,2.271,1.386
				c0.639,0.59,1.149,1.277,1.533,2.064c0.383,0.786,0.604,1.632,0.663,2.535c0.02,0.177,0.029,0.403,0.029,0.679
				c0,0.275,0,0.55,0,0.825c0,0.275,0,0.546,0,0.81c0,0.266-0.01,0.486-0.029,0.663c-0.079,0.904-0.305,1.75-0.678,2.536
				c-0.374,0.786-0.88,1.469-1.519,2.049c-0.639,0.58-1.396,1.037-2.271,1.371c-0.875,0.334-1.852,0.501-2.934,0.501
				s-2.059-0.167-2.933-0.501c-0.875-0.334-1.632-0.791-2.271-1.371c-0.639-0.58-1.145-1.263-1.519-2.049
				c-0.373-0.786-0.6-1.632-0.678-2.536c-0.02-0.177-0.034-0.397-0.044-0.663c-0.011-0.265-0.015-0.535-0.015-0.81
				c0-0.275,0.004-0.55,0.015-0.825c0.01-0.275,0.025-0.502,0.044-0.679c0.059-0.903,0.28-1.749,0.663-2.535
				c0.384-0.786,0.894-1.474,1.533-2.064c0.639-0.59,1.396-1.052,2.271-1.386C187.645,386.749,188.623,386.582,189.704,386.582z
				 M193.271,393.215c-0.059-0.608-0.201-1.115-0.427-1.518c-0.227-0.403-0.507-0.723-0.841-0.959
				c-0.334-0.235-0.698-0.397-1.091-0.486c-0.394-0.088-0.796-0.133-1.209-0.133c-0.412,0-0.815,0.045-1.208,0.133
				c-0.394,0.089-0.757,0.251-1.091,0.486c-0.335,0.236-0.615,0.556-0.841,0.959c-0.226,0.402-0.368,0.909-0.428,1.518
				c-0.02,0.158-0.034,0.354-0.044,0.59c-0.01,0.236-0.015,0.481-0.015,0.737c0,0.256,0.005,0.506,0.015,0.752
				c0.01,0.246,0.024,0.438,0.044,0.574c0.06,0.609,0.202,1.116,0.428,1.519c0.225,0.403,0.506,0.723,0.841,0.958
				c0.334,0.236,0.697,0.398,1.091,0.486c0.393,0.089,0.796,0.133,1.208,0.133c0.413,0,0.815-0.044,1.209-0.133
				c0.393-0.088,0.757-0.25,1.091-0.486c0.334-0.235,0.614-0.555,0.841-0.958c0.226-0.402,0.368-0.909,0.427-1.519
				c0.02-0.137,0.029-0.328,0.029-0.574s0-0.496,0-0.752c0-0.256,0-0.501,0-0.737C193.3,393.569,193.291,393.373,193.271,393.215z"
				/>
			<path style="fill:#FFFFFF;" d="M152.425,425.411c0,0.217-0.078,0.403-0.235,0.56c-0.157,0.158-0.345,0.236-0.561,0.236h-2.24
				c-0.217,0-0.403-0.078-0.561-0.236c-0.157-0.156-0.235-0.343-0.235-0.56v-7.488c0-1.18-0.275-2.123-0.826-2.83
				c-0.55-0.708-1.395-1.061-2.535-1.061c-1.042,0-1.862,0.353-2.462,1.061c-0.6,0.707-0.898,1.65-0.898,2.83v7.488
				c0,0.217-0.079,0.403-0.236,0.56c-0.157,0.158-0.344,0.236-0.559,0.236h-2.241c-0.217,0-0.403-0.078-0.56-0.236
				c-0.158-0.156-0.236-0.343-0.236-0.56v-13.738c0-0.216,0.078-0.403,0.236-0.561c0.156-0.157,0.343-0.235,0.56-0.235h2.241
				c0.216,0,0.402,0.078,0.559,0.235c0.157,0.157,0.236,0.345,0.236,0.561v0.678c0.511-0.511,1.109-0.934,1.798-1.268
				c0.688-0.334,1.504-0.501,2.447-0.501c1.198,0,2.201,0.186,3.007,0.56c0.806,0.374,1.454,0.875,1.946,1.504
				c0.491,0.629,0.84,1.361,1.046,2.196c0.207,0.836,0.31,1.715,0.31,2.639V425.411z"/>
			<path style="fill:#FFFFFF;" d="M162.36,410.582c1.081,0,2.059,0.167,2.934,0.501c0.874,0.334,1.632,0.796,2.271,1.386
				c0.639,0.59,1.149,1.277,1.533,2.064c0.383,0.786,0.604,1.632,0.663,2.535c0.02,0.177,0.029,0.403,0.029,0.679
				c0,0.275,0,0.55,0,0.825c0,0.275,0,0.546,0,0.81c0,0.266-0.01,0.486-0.029,0.663c-0.079,0.904-0.305,1.75-0.678,2.536
				c-0.374,0.786-0.88,1.469-1.518,2.049c-0.639,0.58-1.396,1.037-2.271,1.371c-0.875,0.334-1.853,0.501-2.934,0.501
				c-1.081,0-2.059-0.167-2.933-0.501c-0.875-0.334-1.632-0.791-2.271-1.371c-0.639-0.58-1.145-1.263-1.518-2.049
				c-0.373-0.786-0.6-1.632-0.678-2.536c-0.02-0.177-0.034-0.397-0.044-0.663c-0.011-0.265-0.015-0.535-0.015-0.81
				c0-0.275,0.004-0.55,0.015-0.825c0.01-0.275,0.024-0.502,0.044-0.679c0.059-0.903,0.28-1.749,0.663-2.535
				c0.384-0.786,0.895-1.474,1.533-2.064c0.639-0.59,1.396-1.052,2.271-1.386C160.301,410.749,161.279,410.582,162.36,410.582z
				 M165.927,417.215c-0.059-0.608-0.201-1.115-0.427-1.518c-0.227-0.403-0.507-0.723-0.841-0.959
				c-0.334-0.235-0.698-0.397-1.091-0.486c-0.393-0.088-0.796-0.133-1.209-0.133c-0.412,0-0.816,0.045-1.208,0.133
				c-0.393,0.089-0.757,0.251-1.091,0.486c-0.335,0.236-0.615,0.556-0.841,0.959c-0.226,0.402-0.368,0.909-0.428,1.518
				c-0.02,0.158-0.034,0.354-0.044,0.59c-0.01,0.236-0.015,0.481-0.015,0.737c0,0.256,0.005,0.506,0.015,0.752
				c0.01,0.246,0.024,0.438,0.044,0.574c0.059,0.609,0.202,1.116,0.428,1.519c0.226,0.403,0.506,0.723,0.841,0.958
				c0.334,0.236,0.697,0.398,1.091,0.486c0.393,0.089,0.796,0.133,1.208,0.133c0.413,0,0.815-0.044,1.209-0.133
				c0.393-0.088,0.757-0.25,1.091-0.486c0.334-0.235,0.614-0.555,0.841-0.958c0.226-0.402,0.368-0.909,0.427-1.519
				c0.02-0.137,0.029-0.328,0.029-0.574s0-0.496,0-0.752c0-0.256,0-0.501,0-0.737C165.957,417.569,165.947,417.373,165.927,417.215z
				"/>
			<path style="fill:#FFFFFF;" d="M175.628,422.021c0.216,0,0.402,0.079,0.56,0.236c0.157,0.157,0.236,0.344,0.236,0.56v2.595
				c0,0.217-0.079,0.403-0.236,0.56c-0.157,0.158-0.344,0.236-0.56,0.236h-2.536c-0.216,0-0.402-0.078-0.56-0.236
				c-0.158-0.156-0.236-0.343-0.236-0.56v-2.595c0-0.216,0.078-0.402,0.236-0.56c0.157-0.157,0.344-0.236,0.56-0.236H175.628z
				 M176.276,419.456c0,0.216-0.079,0.402-0.236,0.56c-0.157,0.158-0.344,0.236-0.559,0.236h-2.241c-0.216,0-0.402-0.078-0.56-0.236
				c-0.158-0.157-0.236-0.344-0.236-0.56v-13.09c0-0.217,0.078-0.403,0.236-0.561c0.157-0.157,0.344-0.235,0.56-0.235h2.241
				c0.216,0,0.402,0.078,0.559,0.235c0.157,0.157,0.236,0.344,0.236,0.561V419.456z"/>
		</g>
	</g>
</g>
<g id="Speech_Bubble_4">
	<g id="Speech_Bubble_00000071544869456337834120000014491781755177706905_">
		<path id="Speech_Bubble_00000139252578995808968040000013371971476790870148_" style="fill:#F5F5F5;" d="M46.662,294.101
			c-2.516-3.013-7.24-4.12-12.367-3.002c4.283-6.345,17.246-8.379,24.58-3.427c5.222-1.818,10.976-2.83,17.024-2.83
			c23.761,0,43.022,15.547,43.022,34.726s-19.262,34.725-43.023,34.725c-23.761,0-43.022-15.547-43.022-34.725
			C32.877,309.503,38.187,300.444,46.662,294.101z"/>
		<path style="fill:#FFFFFF;" d="M86.449,303.289l-10.549,10.549l-10.549-10.549c-1.582-1.582-4.148-1.582-5.73,0
			c-1.582,1.582-1.582,4.147,0,5.73l10.549,10.549l-10.549,10.549c-1.582,1.582-1.582,4.147,0,5.73c1.582,1.582,4.148,1.582,5.73,0
			L75.9,325.297l10.549,10.549c1.582,1.582,4.147,1.583,5.73,0c1.582-1.582,1.582-4.147,0-5.73l-10.549-10.549l10.549-10.549
			c1.582-1.582,1.582-4.147,0-5.73C90.596,301.706,88.031,301.707,86.449,303.289z"/>
	</g>
</g>
<g id="Speech_Bubble_3">
	<g id="Speech_Bubble_00000049219224130883227080000014279648719693315720_">
		<path id="Speech_Bubble_00000006665465705377046810000006747937143104862142_" style="fill:#EBEBEB;" d="M211.304,276.983
			c2.143-2.566,6.166-3.509,10.532-2.556c-3.647-5.404-14.687-7.136-20.933-2.919c-4.447-1.549-9.347-2.41-14.498-2.41
			c-20.235,0-36.64,13.241-36.64,29.573c0,16.333,16.404,29.574,36.64,29.574s36.639-13.241,36.639-29.574
			C223.044,290.1,218.522,282.384,211.304,276.983z"/>
		<g>
			<path style="fill:#FFFFFF;" d="M155.601,296.751c0.042-0.794,0.194-1.542,0.457-2.243c0.262-0.702,0.648-1.311,1.158-1.829
				c0.511-0.517,1.148-0.928,1.914-1.232c0.765-0.305,1.672-0.457,2.721-0.457c1.035,0,1.935,0.148,2.7,0.446
				c0.766,0.298,1.403,0.709,1.914,1.233c0.51,0.524,0.899,1.134,1.169,1.828c0.268,0.694,0.425,1.445,0.468,2.254
				c0.014,0.269,0.025,0.566,0.032,0.893c0.007,0.326,0.01,0.663,0.01,1.01c0,0.348-0.003,0.684-0.01,1.01
				c-0.008,0.326-0.019,0.624-0.032,0.893c-0.043,0.794-0.195,1.541-0.457,2.242c-0.263,0.702-0.648,1.311-1.159,1.829
				c-0.51,0.518-1.151,0.925-1.924,1.223c-0.773,0.297-1.676,0.446-2.711,0.446c-1.049,0-1.956-0.149-2.721-0.446
				c-0.766-0.298-1.403-0.705-1.914-1.223c-0.51-0.518-0.896-1.127-1.158-1.829c-0.263-0.701-0.415-1.448-0.457-2.242
				c-0.015-0.27-0.025-0.567-0.032-0.893c-0.008-0.326-0.011-0.662-0.011-1.01c0-0.347,0.003-0.684,0.011-1.01
				C155.576,297.318,155.587,297.02,155.601,296.751z M165.232,296.857c-0.057-1.021-0.387-1.81-0.989-2.37
				c-0.603-0.56-1.399-0.84-2.392-0.84s-1.789,0.28-2.392,0.84c-0.603,0.56-0.932,1.35-0.988,2.37
				c-0.029,0.539-0.043,1.138-0.043,1.797s0.014,1.258,0.043,1.797c0.057,1.02,0.386,1.807,0.988,2.359
				c0.603,0.553,1.399,0.829,2.392,0.829s1.789-0.276,2.392-0.829c0.603-0.553,0.933-1.339,0.989-2.359
				c0.028-0.539,0.042-1.138,0.042-1.797S165.26,297.396,165.232,296.857z"/>
			<path style="fill:#FFFFFF;" d="M180.56,305.51c0,0.156-0.057,0.291-0.17,0.404c-0.113,0.113-0.248,0.17-0.403,0.17h-1.616
				c-0.156,0-0.291-0.057-0.404-0.17c-0.113-0.113-0.17-0.248-0.17-0.404v-5.4c0-0.85-0.198-1.53-0.595-2.041
				c-0.397-0.51-1.007-0.765-1.829-0.765c-0.751,0-1.343,0.255-1.775,0.765c-0.432,0.511-0.648,1.191-0.648,2.041v5.4
				c0,0.156-0.057,0.291-0.17,0.404c-0.113,0.113-0.248,0.17-0.403,0.17h-1.616c-0.156,0-0.291-0.057-0.404-0.17
				c-0.113-0.113-0.17-0.248-0.17-0.404v-13.947c0-0.155,0.057-0.29,0.17-0.403c0.113-0.113,0.248-0.17,0.404-0.17h1.616
				c0.155,0,0.29,0.057,0.403,0.17c0.113,0.113,0.17,0.248,0.17,0.403v4.529c0.369-0.369,0.801-0.673,1.297-0.914
				c0.496-0.241,1.085-0.362,1.765-0.362c0.865,0,1.588,0.136,2.169,0.404c0.581,0.27,1.049,0.631,1.403,1.084
				c0.355,0.454,0.605,0.982,0.755,1.584c0.148,0.602,0.223,1.237,0.223,1.903V305.51z"/>
			<path style="fill:#FFFFFF;" d="M197.548,305.51c0,0.156-0.057,0.291-0.17,0.404c-0.113,0.113-0.248,0.17-0.403,0.17h-1.616
				c-0.156,0-0.291-0.057-0.404-0.17c-0.113-0.113-0.17-0.248-0.17-0.404v-5.4c0-0.85-0.198-1.53-0.595-2.041
				c-0.398-0.51-1.007-0.765-1.829-0.765c-0.751,0-1.343,0.255-1.775,0.765c-0.432,0.511-0.648,1.191-0.648,2.041v5.4
				c0,0.156-0.057,0.291-0.17,0.404c-0.113,0.113-0.248,0.17-0.403,0.17h-1.616c-0.156,0-0.291-0.057-0.404-0.17
				c-0.113-0.113-0.17-0.248-0.17-0.404v-9.907c0-0.156,0.057-0.29,0.17-0.404c0.113-0.113,0.248-0.17,0.404-0.17h1.616
				c0.155,0,0.29,0.057,0.403,0.17c0.113,0.114,0.17,0.248,0.17,0.404v0.489c0.369-0.369,0.801-0.673,1.297-0.914
				c0.496-0.241,1.085-0.362,1.765-0.362c0.865,0,1.588,0.136,2.169,0.404c0.581,0.27,1.049,0.631,1.403,1.084
				c0.354,0.454,0.605,0.982,0.755,1.584c0.148,0.602,0.223,1.237,0.223,1.903V305.51z"/>
			<path style="fill:#FFFFFF;" d="M204.712,294.816c0.779,0,1.484,0.121,2.115,0.362c0.631,0.241,1.176,0.573,1.637,0.999
				c0.461,0.425,0.829,0.921,1.105,1.488c0.276,0.566,0.436,1.177,0.479,1.828c0.014,0.128,0.021,0.291,0.021,0.489
				c0,0.198,0,0.396,0,0.595c0,0.199,0,0.394,0,0.585s-0.008,0.351-0.021,0.479c-0.057,0.652-0.22,1.262-0.489,1.828
				c-0.269,0.567-0.634,1.06-1.095,1.478c-0.461,0.419-1.006,0.748-1.637,0.989c-0.631,0.24-1.336,0.361-2.115,0.361
				c-0.78,0-1.485-0.121-2.115-0.361c-0.631-0.241-1.177-0.57-1.638-0.989c-0.461-0.418-0.826-0.91-1.095-1.478
				c-0.27-0.566-0.433-1.176-0.489-1.828c-0.014-0.128-0.024-0.287-0.031-0.479c-0.008-0.191-0.011-0.386-0.011-0.585
				c0-0.198,0.003-0.397,0.011-0.595c0.007-0.198,0.018-0.361,0.031-0.489c0.043-0.651,0.202-1.262,0.479-1.828
				c0.276-0.567,0.645-1.063,1.105-1.488c0.461-0.426,1.007-0.758,1.638-0.999C203.227,294.937,203.932,294.816,204.712,294.816z
				 M207.285,299.6c-0.043-0.439-0.146-0.805-0.309-1.095c-0.163-0.291-0.365-0.521-0.605-0.691c-0.241-0.17-0.504-0.287-0.787-0.35
				c-0.283-0.064-0.573-0.096-0.871-0.096c-0.298,0-0.589,0.032-0.872,0.096c-0.283,0.063-0.546,0.181-0.786,0.35
				c-0.241,0.17-0.443,0.4-0.607,0.691c-0.163,0.29-0.266,0.655-0.309,1.095c-0.014,0.113-0.024,0.255-0.031,0.425
				c-0.008,0.17-0.011,0.348-0.011,0.532c0,0.184,0.003,0.364,0.011,0.542c0.007,0.177,0.018,0.315,0.031,0.414
				c0.043,0.439,0.146,0.805,0.309,1.095c0.163,0.291,0.365,0.521,0.607,0.691c0.24,0.17,0.503,0.287,0.786,0.351
				c0.283,0.064,0.574,0.096,0.872,0.096c0.298,0,0.588-0.031,0.871-0.096c0.283-0.064,0.546-0.181,0.787-0.351
				c0.24-0.17,0.442-0.4,0.605-0.691c0.163-0.29,0.266-0.655,0.309-1.095c0.014-0.099,0.021-0.237,0.021-0.414
				c0-0.178,0-0.358,0-0.542c0-0.185,0-0.362,0-0.532S207.298,299.713,207.285,299.6z"/>
			<path style="fill:#FFFFFF;" d="M214.279,303.066c0.156,0,0.291,0.057,0.404,0.17c0.113,0.113,0.17,0.248,0.17,0.403v1.871
				c0,0.156-0.057,0.291-0.17,0.404c-0.113,0.113-0.248,0.17-0.404,0.17h-1.828c-0.156,0-0.291-0.057-0.404-0.17
				c-0.113-0.113-0.17-0.248-0.17-0.404v-1.871c0-0.155,0.057-0.29,0.17-0.403c0.113-0.113,0.248-0.17,0.404-0.17H214.279z
				 M214.747,301.215c0,0.156-0.057,0.291-0.17,0.404c-0.113,0.113-0.248,0.17-0.404,0.17h-1.615c-0.156,0-0.291-0.057-0.404-0.17
				c-0.113-0.113-0.17-0.248-0.17-0.404v-9.439c0-0.155,0.057-0.29,0.17-0.403c0.113-0.113,0.248-0.171,0.404-0.171h1.615
				c0.156,0,0.291,0.058,0.404,0.171c0.113,0.113,0.17,0.248,0.17,0.403V301.215z"/>
		</g>
	</g>
</g>
<g id="Speech_Bubble_2">
	<g id="Speech_Bubble_00000143610334186303729400000007345874501400911285_">
		<path id="Speech_Bubble_00000001646246241781390140000018278330038954206655_" style="fill:#F0F0F0;" d="M120.178,256.564
			c9.849-7.37,16.02-17.898,16.02-29.594c0-22.287-22.384-40.354-49.996-40.354c-27.612,0-49.996,18.067-49.996,40.354
			c0,22.287,22.384,40.354,49.996,40.354c7.029,0,13.715-1.176,19.784-3.289c8.523,5.754,23.587,3.391,28.564-3.983
			C128.592,261.351,123.102,260.065,120.178,256.564z"/>
		<g>
			<path style="fill:#FFFFFF;" d="M46.474,225.128c0.056-1.036,0.255-2.013,0.598-2.929c0.342-0.917,0.847-1.712,1.513-2.389
				c0.667-0.675,1.5-1.212,2.499-1.61c1-0.397,2.185-0.597,3.555-0.597c1.351,0,2.527,0.194,3.526,0.583
				c1,0.389,1.833,0.926,2.499,1.61c0.667,0.686,1.176,1.482,1.527,2.388c0.352,0.907,0.556,1.889,0.611,2.943
				c0.018,0.353,0.031,0.741,0.041,1.167c0.01,0.426,0.014,0.865,0.014,1.318c0,0.454-0.004,0.894-0.014,1.319
				c-0.01,0.426-0.023,0.814-0.041,1.166c-0.056,1.037-0.255,2.014-0.598,2.93s-0.847,1.713-1.513,2.388
				c-0.667,0.676-1.505,1.208-2.514,1.597c-1.009,0.389-2.188,0.583-3.54,0.583c-1.37,0-2.555-0.194-3.555-0.583
				c-0.999-0.389-1.832-0.921-2.499-1.597c-0.666-0.675-1.171-1.472-1.513-2.388c-0.343-0.916-0.542-1.893-0.598-2.93
				c-0.019-0.352-0.032-0.74-0.041-1.166c-0.01-0.426-0.014-0.865-0.014-1.319c0-0.453,0.004-0.893,0.014-1.318
				C46.442,225.869,46.456,225.481,46.474,225.128z M59.053,225.268c-0.074-1.333-0.505-2.365-1.291-3.097
				c-0.787-0.73-1.828-1.097-3.124-1.097c-1.296,0-2.337,0.366-3.124,1.097c-0.787,0.731-1.217,1.764-1.291,3.097
				c-0.037,0.703-0.056,1.485-0.056,2.346c0,0.861,0.019,1.644,0.056,2.347c0.074,1.333,0.504,2.36,1.291,3.082
				c0.787,0.722,1.828,1.083,3.124,1.083c1.296,0,2.337-0.361,3.124-1.083c0.786-0.722,1.217-1.749,1.291-3.082
				c0.037-0.703,0.056-1.485,0.056-2.347C59.109,226.753,59.09,225.971,59.053,225.268z"/>
			<path style="fill:#FFFFFF;" d="M79.074,236.568c0,0.204-0.074,0.38-0.223,0.528c-0.148,0.147-0.324,0.222-0.527,0.222h-2.11
				c-0.204,0-0.38-0.074-0.527-0.222c-0.148-0.148-0.223-0.324-0.223-0.528v-7.053c0-1.11-0.259-1.999-0.777-2.666
				c-0.518-0.666-1.314-0.999-2.388-0.999c-0.981,0-1.754,0.333-2.318,0.999c-0.566,0.667-0.848,1.556-0.848,2.666v7.053
				c0,0.204-0.074,0.38-0.222,0.528c-0.148,0.147-0.324,0.222-0.527,0.222h-2.11c-0.204,0-0.38-0.074-0.528-0.222
				c-0.148-0.148-0.222-0.324-0.222-0.528v-18.215c0-0.204,0.073-0.38,0.222-0.528c0.149-0.147,0.324-0.222,0.528-0.222h2.11
				c0.203,0,0.379,0.074,0.527,0.222c0.147,0.148,0.222,0.324,0.222,0.528v5.914c0.481-0.481,1.046-0.879,1.694-1.194
				c0.647-0.314,1.416-0.472,2.305-0.472c1.129,0,2.073,0.176,2.832,0.527c0.759,0.352,1.37,0.824,1.833,1.416
				c0.462,0.593,0.791,1.282,0.985,2.069c0.194,0.787,0.292,1.615,0.292,2.485V236.568z"/>
			<path style="fill:#FFFFFF;" d="M101.259,236.568c0,0.204-0.074,0.38-0.223,0.528c-0.148,0.147-0.324,0.222-0.527,0.222h-2.11
				c-0.204,0-0.38-0.074-0.527-0.222c-0.148-0.148-0.223-0.324-0.223-0.528v-7.053c0-1.11-0.259-1.999-0.777-2.666
				c-0.519-0.666-1.314-0.999-2.388-0.999c-0.981,0-1.754,0.333-2.318,0.999c-0.565,0.667-0.848,1.556-0.848,2.666v7.053
				c0,0.204-0.074,0.38-0.222,0.528c-0.148,0.147-0.324,0.222-0.527,0.222h-2.11c-0.204,0-0.38-0.074-0.528-0.222
				c-0.148-0.148-0.222-0.324-0.222-0.528v-12.939c0-0.203,0.073-0.379,0.222-0.527c0.148-0.148,0.324-0.223,0.528-0.223h2.11
				c0.203,0,0.379,0.074,0.527,0.223c0.147,0.148,0.222,0.324,0.222,0.527v0.639c0.481-0.481,1.046-0.879,1.694-1.194
				c0.647-0.314,1.416-0.472,2.305-0.472c1.129,0,2.073,0.176,2.832,0.527c0.759,0.352,1.37,0.824,1.833,1.416
				c0.462,0.593,0.791,1.282,0.985,2.069c0.194,0.787,0.292,1.615,0.292,2.485V236.568z"/>
			<path style="fill:#FFFFFF;" d="M110.617,222.602c1.019,0,1.939,0.157,2.764,0.472c0.823,0.315,1.536,0.75,2.138,1.306
				c0.601,0.555,1.083,1.203,1.443,1.943c0.361,0.741,0.569,1.537,0.625,2.388c0.019,0.167,0.028,0.38,0.028,0.639
				c0,0.26,0,0.519,0,0.778c0,0.259,0,0.514,0,0.764c0,0.249-0.01,0.458-0.028,0.624c-0.074,0.852-0.287,1.648-0.639,2.389
				c-0.352,0.74-0.828,1.384-1.43,1.93c-0.602,0.546-1.315,0.976-2.138,1.291c-0.824,0.314-1.745,0.472-2.764,0.472
				c-1.018,0-1.939-0.157-2.763-0.472c-0.824-0.315-1.536-0.745-2.138-1.291c-0.602-0.546-1.079-1.189-1.431-1.93
				c-0.352-0.74-0.564-1.537-0.639-2.389c-0.019-0.166-0.032-0.375-0.041-0.624c-0.01-0.25-0.014-0.505-0.014-0.764
				c0-0.26,0.004-0.519,0.014-0.778c0.009-0.259,0.022-0.472,0.041-0.639c0.056-0.851,0.265-1.646,0.625-2.388
				c0.361-0.74,0.843-1.389,1.444-1.943c0.602-0.556,1.313-0.99,2.138-1.306C108.677,222.759,109.599,222.602,110.617,222.602z
				 M113.977,228.85c-0.056-0.574-0.19-1.051-0.402-1.431c-0.214-0.379-0.478-0.68-0.792-0.902
				c-0.314-0.222-0.657-0.375-1.027-0.458c-0.37-0.083-0.75-0.125-1.139-0.125c-0.389,0-0.768,0.042-1.138,0.125
				c-0.371,0.083-0.713,0.236-1.028,0.458c-0.314,0.223-0.578,0.523-0.791,0.902c-0.213,0.38-0.347,0.857-0.402,1.431
				c-0.019,0.148-0.033,0.333-0.042,0.555c-0.01,0.223-0.014,0.454-0.014,0.694c0,0.241,0.004,0.477,0.014,0.708
				c0.009,0.232,0.023,0.412,0.042,0.542c0.056,0.573,0.189,1.051,0.402,1.43c0.213,0.38,0.477,0.681,0.791,0.902
				c0.315,0.223,0.657,0.375,1.028,0.458c0.37,0.084,0.749,0.125,1.138,0.125c0.389,0,0.769-0.041,1.139-0.125
				c0.37-0.083,0.713-0.235,1.027-0.458c0.314-0.222,0.578-0.522,0.792-0.902c0.212-0.379,0.347-0.857,0.402-1.43
				c0.018-0.13,0.027-0.311,0.027-0.542c0-0.231,0-0.467,0-0.708c0-0.24,0-0.472,0-0.694
				C114.005,229.183,113.995,228.998,113.977,228.85z"/>
			<path style="fill:#FFFFFF;" d="M123.112,233.375c0.204,0,0.38,0.074,0.527,0.223c0.148,0.149,0.223,0.324,0.223,0.527v2.443
				c0,0.204-0.074,0.38-0.223,0.528c-0.147,0.147-0.323,0.222-0.527,0.222h-2.388c-0.204,0-0.38-0.074-0.527-0.222
				c-0.148-0.148-0.223-0.324-0.223-0.528v-2.443c0-0.203,0.074-0.379,0.223-0.527c0.147-0.148,0.323-0.223,0.527-0.223H123.112z
				 M123.723,230.96c0,0.203-0.074,0.379-0.223,0.527c-0.149,0.148-0.324,0.222-0.527,0.222h-2.11c-0.204,0-0.38-0.073-0.527-0.222
				c-0.148-0.148-0.223-0.324-0.223-0.527v-12.329c0-0.203,0.074-0.379,0.223-0.527c0.147-0.148,0.323-0.223,0.527-0.223h2.11
				c0.203,0,0.379,0.074,0.527,0.223c0.148,0.148,0.223,0.324,0.223,0.527V230.96z"/>
		</g>
	</g>
</g>
<g id="Speech_Bubble_1">
	<g id="Speech_Bubble_00000161618748069818813710000009921181096223609521_">
		<g id="Speech_Bubble_00000142174318879608972710000011371680287350738073_">
			<path style="fill:#FFFFFF;" d="M206.592,148.249c15.372-11.504,25.004-27.936,25.004-46.19c0-34.786-34.937-62.985-78.034-62.985
				s-78.034,28.199-78.034,62.985s34.937,62.985,78.034,62.985c10.971,0,21.407-1.836,30.879-5.134
				c13.303,8.98,36.816,5.292,44.583-6.217C219.724,155.721,211.155,153.714,206.592,148.249z"/>
			<g>
				<path style="fill:#455A64;" d="M153.561,166.044c-43.579,0-79.034-28.704-79.034-63.985c0-35.281,35.455-63.985,79.034-63.985
					s79.034,28.704,79.034,63.985c0,17.459-8.925,34.287-24.531,46.328c4.427,4.523,12.252,6.182,20.746,4.33
					c0.407-0.086,0.811,0.079,1.04,0.415c0.229,0.339,0.23,0.782,0.002,1.121c-3.834,5.681-11.647,9.876-20.901,11.222
					c-9.237,1.344-18.187-0.28-24.65-4.458C174.548,164.353,164.209,166.044,153.561,166.044z M153.561,40.073
					c-42.476,0-77.034,27.807-77.034,61.985s34.558,61.985,77.034,61.985c10.594,0,20.872-1.709,30.55-5.078
					c0.299-0.105,0.627-0.061,0.889,0.115c5.994,4.047,14.839,5.695,23.664,4.415c7.547-1.099,14.039-4.155,17.929-8.353
					c-8.653,1.206-16.458-1.093-20.768-6.254c-0.176-0.21-0.258-0.484-0.226-0.757c0.032-0.272,0.174-0.52,0.394-0.685
					c15.636-11.7,24.603-28.244,24.603-45.39C230.595,67.88,196.038,40.073,153.561,40.073z"/>
			</g>
		</g>
		<g>
			<path style="fill:#BA68C8;" d="M88.197,97.311c0.092-1.719,0.422-3.338,0.99-4.857c0.567-1.52,1.404-2.839,2.509-3.96
				c1.105-1.12,2.487-2.01,4.145-2.671c1.657-0.659,3.622-0.989,5.894-0.989c2.24,0,4.19,0.322,5.848,0.967
				c1.657,0.645,3.039,1.535,4.145,2.671c1.105,1.136,1.948,2.456,2.532,3.959c0.582,1.505,0.921,3.132,1.013,4.881
				c0.03,0.584,0.054,1.229,0.069,1.935c0.015,0.706,0.022,1.435,0.022,2.187c0,0.753-0.008,1.481-0.022,2.188
				c-0.016,0.706-0.039,1.351-0.069,1.934c-0.092,1.72-0.422,3.338-0.99,4.857c-0.568,1.52-1.404,2.84-2.509,3.96
				c-1.105,1.121-2.495,2.003-4.167,2.647c-1.674,0.645-3.631,0.967-5.871,0.967c-2.271,0-4.236-0.322-5.894-0.967
				c-1.657-0.645-3.039-1.526-4.145-2.647c-1.104-1.12-1.941-2.44-2.509-3.96c-0.568-1.52-0.898-3.138-0.99-4.857
				c-0.031-0.583-0.054-1.228-0.069-1.934c-0.016-0.706-0.022-1.435-0.022-2.188c0-0.752,0.007-1.48,0.022-2.187
				C88.143,98.539,88.166,97.895,88.197,97.311z M109.055,97.541c-0.123-2.21-0.837-3.921-2.142-5.134
				c-1.305-1.212-3.031-1.819-5.18-1.819c-2.148,0-3.876,0.607-5.18,1.819c-1.306,1.213-2.019,2.924-2.142,5.134
				c-0.062,1.167-0.092,2.464-0.092,3.891c0,1.428,0.03,2.725,0.092,3.891c0.123,2.211,0.836,3.914,2.142,5.111
				c1.304,1.197,3.031,1.796,5.18,1.796c2.148,0,3.875-0.599,5.18-1.796c1.305-1.197,2.019-2.9,2.142-5.111
				c0.061-1.166,0.092-2.463,0.092-3.891C109.147,100.005,109.116,98.708,109.055,97.541z"/>
			<path style="fill:#BA68C8;" d="M142.253,116.281c0,0.338-0.123,0.63-0.368,0.875c-0.246,0.246-0.537,0.368-0.875,0.368h-3.499
				c-0.338,0-0.63-0.122-0.875-0.368c-0.246-0.245-0.368-0.537-0.368-0.875v-11.695c0-1.842-0.431-3.315-1.289-4.42
				c-0.86-1.105-2.181-1.658-3.96-1.658c-1.628,0-2.909,0.553-3.845,1.658c-0.937,1.104-1.404,2.578-1.404,4.42v11.695
				c0,0.338-0.123,0.63-0.368,0.875c-0.246,0.246-0.538,0.368-0.875,0.368h-3.5c-0.338,0-0.629-0.122-0.874-0.368
				c-0.246-0.245-0.369-0.537-0.369-0.875V86.076c0-0.338,0.123-0.629,0.369-0.875c0.245-0.245,0.536-0.368,0.874-0.368h3.5
				c0.337,0,0.629,0.123,0.875,0.368c0.245,0.246,0.368,0.537,0.368,0.875v9.808c0.798-0.798,1.733-1.458,2.809-1.98
				c1.074-0.521,2.349-0.782,3.821-0.782c1.872,0,3.438,0.292,4.697,0.875c1.258,0.583,2.271,1.366,3.038,2.348
				c0.768,0.983,1.313,2.126,1.635,3.431c0.322,1.305,0.483,2.679,0.483,4.121V116.281z"/>
			<path style="fill:#BA68C8;" d="M179.042,116.281c0,0.338-0.123,0.63-0.368,0.875c-0.246,0.246-0.537,0.368-0.875,0.368h-3.499
				c-0.338,0-0.63-0.122-0.875-0.368c-0.246-0.245-0.368-0.537-0.368-0.875v-11.695c0-1.842-0.431-3.315-1.289-4.42
				c-0.86-1.105-2.181-1.658-3.96-1.658c-1.628,0-2.909,0.553-3.845,1.658c-0.936,1.104-1.404,2.578-1.404,4.42v11.695
				c0,0.338-0.123,0.63-0.368,0.875c-0.246,0.246-0.538,0.368-0.875,0.368h-3.5c-0.338,0-0.629-0.122-0.874-0.368
				c-0.246-0.245-0.369-0.537-0.369-0.875V94.824c0-0.337,0.123-0.629,0.369-0.875c0.245-0.245,0.536-0.368,0.874-0.368h3.5
				c0.337,0,0.629,0.123,0.875,0.368c0.245,0.246,0.368,0.538,0.368,0.875v1.06c0.798-0.798,1.733-1.458,2.809-1.98
				c1.074-0.521,2.349-0.782,3.821-0.782c1.872,0,3.438,0.292,4.697,0.875c1.258,0.583,2.271,1.366,3.038,2.348
				c0.768,0.983,1.313,2.126,1.635,3.431c0.322,1.305,0.483,2.679,0.483,4.121V116.281z"/>
			<path style="fill:#BA68C8;" d="M194.559,93.121c1.688,0,3.215,0.261,4.581,0.782c1.365,0.522,2.548,1.243,3.545,2.164
				c0.998,0.921,1.796,1.996,2.395,3.224c0.599,1.228,0.944,2.548,1.036,3.96c0.03,0.276,0.046,0.629,0.046,1.059
				c0,0.431,0,0.859,0,1.289c0,0.431,0,0.853,0,1.267s-0.016,0.76-0.046,1.036c-0.123,1.412-0.477,2.733-1.059,3.96
				c-0.584,1.227-1.374,2.295-2.372,3.199c-0.997,0.906-2.18,1.62-3.545,2.142c-1.366,0.521-2.893,0.782-4.581,0.782
				c-1.689,0-3.217-0.261-4.582-0.782c-1.366-0.521-2.548-1.235-3.545-2.142c-0.998-0.904-1.789-1.972-2.372-3.199
				c-0.583-1.228-0.937-2.548-1.059-3.96c-0.031-0.276-0.054-0.622-0.069-1.036c-0.016-0.414-0.022-0.836-0.022-1.267
				c0-0.43,0.007-0.858,0.022-1.289c0.016-0.43,0.038-0.782,0.069-1.059c0.092-1.412,0.438-2.732,1.036-3.96
				c0.599-1.228,1.396-2.303,2.395-3.224c0.997-0.921,2.179-1.642,3.545-2.164C191.342,93.382,192.871,93.121,194.559,93.121z
				 M200.13,103.481c-0.093-0.951-0.315-1.741-0.668-2.371c-0.354-0.629-0.791-1.128-1.313-1.496
				c-0.522-0.368-1.09-0.622-1.703-0.76c-0.614-0.139-1.243-0.207-1.888-0.207c-0.646,0-1.274,0.068-1.889,0.207
				c-0.614,0.138-1.182,0.392-1.703,0.76c-0.523,0.368-0.96,0.867-1.313,1.496c-0.354,0.63-0.575,1.42-0.668,2.371
				c-0.03,0.246-0.054,0.553-0.068,0.921c-0.016,0.369-0.023,0.753-0.023,1.151c0,0.399,0.008,0.791,0.023,1.174
				c0.015,0.385,0.038,0.684,0.068,0.898c0.093,0.952,0.315,1.742,0.668,2.371c0.352,0.63,0.79,1.128,1.313,1.496
				c0.521,0.369,1.089,0.622,1.703,0.76c0.614,0.139,1.243,0.208,1.889,0.208c0.645,0,1.273-0.069,1.888-0.208
				c0.613-0.138,1.181-0.391,1.703-0.76c0.521-0.368,0.959-0.866,1.313-1.496c0.353-0.629,0.575-1.419,0.668-2.371
				c0.03-0.215,0.046-0.514,0.046-0.898c0-0.383,0-0.774,0-1.174c0-0.398,0-0.782,0-1.151
				C200.176,104.033,200.161,103.727,200.13,103.481z"/>
			<path style="fill:#BA68C8;" d="M215.278,110.987c0.337,0,0.629,0.123,0.874,0.368c0.246,0.246,0.369,0.537,0.369,0.875v4.052
				c0,0.338-0.123,0.63-0.369,0.875c-0.245,0.246-0.537,0.368-0.874,0.368h-3.96c-0.338,0-0.63-0.122-0.875-0.368
				c-0.246-0.245-0.368-0.537-0.368-0.875v-4.052c0-0.338,0.122-0.629,0.368-0.875c0.245-0.245,0.537-0.368,0.875-0.368H215.278z
				 M216.291,106.981c0,0.338-0.123,0.629-0.368,0.875c-0.246,0.246-0.538,0.368-0.875,0.368h-3.499
				c-0.339,0-0.63-0.122-0.875-0.368c-0.246-0.246-0.369-0.537-0.369-0.875V86.536c0-0.337,0.123-0.629,0.369-0.875
				c0.245-0.245,0.536-0.368,0.875-0.368h3.499c0.337,0,0.629,0.123,0.875,0.368c0.245,0.246,0.368,0.538,0.368,0.875V106.981z"/>
		</g>
	</g>
</g>
<g id="Lines">
	<path id="Lines_00000053517866512869469410000015996481775658626725_" style="fill:#E0E0E0;" d="M417.396,92.296
		c0.351-1.139-1.407-1.185-2.036-0.908c-2.207,0.972-3.949,3.588-5.542,5.349c-2.027,2.24-4.068,4.468-6.124,6.682
		c-3.771,4.061-7.682,7.999-11.536,11.982c-0.425,0.439-0.399,1.135-0.127,1.639c0.311,0.578,0.517,0.67,1.116,0.972
		c0.694,0.35,1.688,0.205,2.22-0.357c3.914-4.129,7.683-8.378,11.497-12.598c1.878-2.078,3.744-4.168,5.6-6.266
		C414.133,96.906,416.643,94.738,417.396,92.296z M423.769,122.728c2.447-0.598,5.746-0.947,7.756-2.524
		c0.938-0.735-0.48-1.776-1.154-1.907c-2.367-0.46-5.29,0.695-7.604,1.233c-2.943,0.684-5.89,1.351-8.841,1.996
		c-5.414,1.185-10.873,2.189-16.31,3.262c-0.6,0.118-0.975,0.704-1.039,1.274c-0.073,0.652,0.043,0.845,0.363,1.435
		c0.37,0.684,1.269,1.131,2.027,0.973c5.57-1.159,11.089-2.5,16.629-3.791C418.323,124.046,421.047,123.393,423.769,122.728z
		 M399.133,140.022c5.416,1.741,10.878,3.298,16.333,4.91c2.687,0.794,5.378,1.571,8.073,2.335c2.423,0.688,5.465,2.012,7.991,1.633
		c1.178-0.177,0.459-1.782-0.063-2.228c-1.832-1.569-4.944-2.006-7.221-2.68c-2.897-0.858-5.789-1.732-8.674-2.627
		c-5.293-1.641-10.536-3.462-15.795-5.212c-0.58-0.193-1.196,0.132-1.533,0.595c-0.386,0.531-0.38,0.756-0.393,1.427
		C397.835,138.953,398.396,139.786,399.133,140.022z"/>
</g>
</svg>
